HIERARCHY
ROOT ui
{
	 OFFSET 0 0 0
	 CHANNELS 3 XPosition YPosition Z Position
	 EndSite
	 {
	 OFFSET 0 -1 0
	 }
}
ROOT li
{
	 OFFSET 0 0 0
	 CHANNELS 3 XPosition YPosition Z Position
	 EndSite
	 {
	 OFFSET 0 -1 0
	 }
}
ROOT ul
{
	 OFFSET 0 0 0
	 CHANNELS 3 XPosition YPosition Z Position
	 EndSite
	 {
	 OFFSET 0 -1 0
	 }
}
ROOT ll
{
	 OFFSET 0 0 0
	 CHANNELS 3 XPosition YPosition Z Position
	 EndSite
	 {
	 OFFSET 0 -1 0
	 }
}
ROOT tt
{
	 OFFSET 0 0 0
	 CHANNELS 3 XPosition YPosition Z Position
	 EndSite
	 {
	 OFFSET 0 -1 0
	 }
}
ROOT tb
{
	 OFFSET 0 0 0
	 CHANNELS 3 XPosition YPosition Z Position
	 EndSite
	 {
	 OFFSET 0 -1 0
	 }
}
ROOT td
{
	 OFFSET 0 0 0
	 CHANNELS 3 XPosition YPosition Z Position
	 EndSite
	 {
	 OFFSET 0 -1 0
	 }
}
ROOT v
{
	 OFFSET 0 0 0
	 CHANNELS 3 XPosition YPosition Z Position
	 EndSite
	 {
	 OFFSET 0 -1 0
	 }
}
ROOT bn
{
	 OFFSET 0 0 0
	 CHANNELS 3 XPosition YPosition Z Position
	 EndSite
	 {
	 OFFSET 0 -1 0
	 }
}
MOTION
Frames: 19
Frame Time: 0.002
-0.004758333206176758	0.0018245609998703003	0		0.5445901489257813	-2.581883056640625	0		-1.0727962646484375	0.2575291748046875	0		-0.46898858642578123	-3.213887939453125	0		1.7569281005859374	-1.4662049560546875	0		3.139586669921875	-0.3245482177734375	0		4.375931640625	0.45482098388671877	0		6.06632080078125	0.6893500366210937	0		-0.15888784790039062	5.969076171875	0		
0.002540019989013672	0.008419399261474609	0		0.5838562622070312	-2.59163134765625	0		-1.0775364990234375	0.2622001953125	0		-0.26881298828125	-3.2356005859375	0		1.7653521728515624	-1.4565137939453126	0		3.122871337890625	-0.32047601318359376	0		4.37828515625	0.46874407958984377	0		6.054990234375	0.6759376220703125	0		-0.14207571411132813	5.96554443359375	0		
-0.00432731294631958	0.0011955209970474243	0		0.59928662109375	-2.58907373046875	0		-1.08329248046875	0.2658883056640625	0		-0.416173583984375	-3.218188720703125	0		1.7575521240234375	-1.4666024169921874	0		3.116862548828125	-0.34149249267578125	0		4.37423291015625	0.44879180908203126	0		6.0516640625	0.6952804565429688	0		-0.15739425659179687	5.955404296875	0		
-0.004117894172668457	9.053999781608582E-4	0		0.5936268310546875	-2.595246826171875	0		-1.012155029296875	0.26068643188476565	0		-0.2869105834960938	-3.236014892578125	0		1.7558402099609376	-1.469732666015625	0		3.123016357421875	-0.34861068725585936	0		4.375267578125	0.43682958984375	0		6.0688310546875	0.676087646484375	0		-0.15764549255371094	5.9551025390625	0		
-0.003917563915252686	6.336039900779725E-4	0		0.5411056518554688	-2.58985498046875	0		-1.0769720458984375	0.2610834655761719	0		-0.40738525390625	-3.23090869140625	0		1.75312890625	-1.4728223876953126	0		3.109119384765625	-0.35945816040039064	0		4.3685009765625	0.4430045166015625	0		6.06254736328125	0.676689697265625	0		-0.17688362121582032	5.96003759765625	0		
-0.0037290139198303224	3.8115298748016356E-4	0		0.5794169921875	-2.59949560546875	0		-1.0727607421875	0.2646900024414062	0		-0.4069112548828125	-3.23119677734375	0		1.767274169921875	-1.48807958984375	0		3.134406982421875	-0.35372348022460937	0		4.36458203125	0.43718466186523436	0		6.06561767578125	0.6961431884765625	0		-0.1933468475341797	5.94895458984375	0		
0.003525322914123535	0.007068497180938721	0		0.547014404296875	-2.583299072265625	0		-1.067564697265625	0.26830255126953123	0		-0.40644073486328125	-3.231466064453125	0		1.7637110595703125	-1.4771051025390625	0		3.123352783203125	-0.37654183959960935	0		4.364716796875	0.43735186767578127	0		6.0657333984375	0.6967164916992188	0		-0.22396499633789063	5.92704833984375	0		
-0.003394047021865845	-6.325200200080872E-5	0		0.5952760009765625	-2.596002197265625	0		-1.0833719482421875	0.27317218017578127	0		-0.41003631591796874	-3.236669921875	0		1.74998681640625	-1.478994140625	0		3.15353466796875	-0.37780224609375	0		4.3645419921875	0.41154794311523435	0		6.06861865234375	0.6816943969726562	0		-0.190290771484375	5.9324306640625	0		
-0.003250062942504883	-2.554660141468048E-4	0		0.5406876831054688	-2.593521728515625	0		-1.08325341796875	0.27287939453125	0		-0.4245338134765625	-3.231732177734375	0		1.7761658935546876	-1.488314208984375	0		3.131614013671875	-0.3864530029296875	0		4.36464794921875	0.4117625732421875	0		6.06815966796875	0.7169728393554687	0		-0.19167686462402345	5.934232421875	0		
-0.006167088985443115	-0.004395051956176758	0		0.6018711547851563	-2.61032275390625	0		-1.0781070556640624	0.2765511474609375	0		-0.4162439880371094	-3.2440322265625	0		1.7544088134765625	-1.4900792236328124	0		3.1576083984375	-0.401626953125	0		4.3645927734375	0.39899099731445314	0		6.0687958984375	0.6830350341796875	0		-0.22616996765136718	5.92742041015625	0		
-0.003011897087097168	-5.83541989326477E-4	0		0.5233404541015625	-2.598552490234375	0		-1.063076904296875	0.2711353759765625	0		-0.4019337158203125	-3.2523779296875	0		1.7666405029296874	-1.4912100830078125	0		3.174709716796875	-0.40568804931640623	0		4.36166796875	0.3992578430175781	0		6.0766962890625	0.6800463256835938	0		-0.2246197052001953	5.92422412109375	0		
0.0081925630569458	0.009158548355102538	0		0.608607421875	-2.603575439453125	0		-1.0579718017578126	0.27385372924804685	0		-0.41041943359375	-3.23945068359375	0		1.7719388427734375	-1.484251953125	0		3.16093896484375	-0.39640252685546873	0		4.37152099609375	0.38038275146484374	0		6.0683701171875	0.7190011596679687	0		-0.19291896057128907	5.93371728515625	0		
-0.0028346428871154784	-8.396520018577575E-4	0		0.5509100341796875	-2.602015625	0		-1.0728458251953126	0.27981344604492187	0		-0.29521795654296873	-3.252852294921875	0		1.777094482421875	-1.4882845458984375	0		3.137857666015625	-0.4140195007324219	0		4.36550732421875	0.37467633056640626	0		6.07261376953125	0.700499755859375	0		-0.20842709350585936	5.92274658203125	0		
-0.002765726089477539	-9.426689743995667E-4	0		0.6010570068359375	-2.612617919921875	0		-1.0778402099609374	0.27568692016601565	0		-0.4287752380371094	-3.23952978515625	0		1.757283447265625	-1.487042236328125	0		3.178792236328125	-0.4293362731933594	0		4.36134423828125	0.35593508911132815	0		6.06118310546875	0.687557373046875	0		-0.22390663146972656	5.911791015625	0		
-0.0057511539459228515	-0.00499853515625	0		0.5463187255859375	-2.60907666015625	0		-1.07780078125	0.275529052734375	0		-0.2996983642578125	-3.25802978515625	0		1.7843387451171875	-1.4963060302734374	0		3.15973876953125	-0.4420140075683594	0		4.3702275390625	0.3420332641601562	0		6.06207666015625	0.7209430541992188	0		-0.2583049926757813	5.90505419921875	0		
-0.002660685062408447	-0.0011058269739151001	0		0.5844130249023437	-2.6185263671875	0		-1.0727259521484376	0.2793408203125	0		-0.41737750244140626	-3.248861083984375	0		1.772598388671875	-1.4841541748046876	0		3.18487353515625	-0.4361805114746094	0		4.370255859375	0.34220138549804685	0		6.0662998046875	0.7022655639648437	0		-0.24346881103515625	5.91580419921875	0		
0.0014118449687957764	0.0017894079685211181	0		0.5766905517578125	-2.607477294921875	0		-1.068666259765625	0.2821872863769531	0		-0.28331326293945314	-3.26136669921875	0		1.7947161865234376	-1.483369384765625	0		3.20375244140625	-0.4532984619140625	0		4.3740791015625	0.3232971496582031	0		6.07274365234375	0.702478515625	0		-0.25980303955078127	5.90590185546875	0		
0.02341571235656738	-0.0014930859804153443	0		0.599743408203125	-2.61475	0		-0.9986748657226563	0.2783584289550781	0		-0.41805902099609377	-3.250995361328125	0		1.79480517578125	-1.48335595703125	0		3.23566552734375	-0.46657421875	0		4.38104052734375	0.3173270263671875	0		6.0685703125	0.72190576171875	0		-0.2249113464355469	5.9114716796875	0		
-0.0025479369163513184	-0.0012547600269317628	0		0.5978099975585938	-2.61775146484375	0		-0.998646728515625	0.2782969970703125	0		-0.28711138916015627	-3.267427490234375	0		1.7879609375	-1.475276123046875	0		3.20572412109375	-0.4652158203125	0		4.37800439453125	0.311427978515625	0		6.06985302734375	0.6840051879882812	0		-0.22501969909667968	5.91142919921875	0		
